<?xml version="1.0" standalone="no"?><!DOCTYPE svg PUBLIC "-//W3C//DTD SVG 1.1//EN" "http://www.w3.org/Graphics/SVG/1.1/DTD/svg11.dtd"><svg t="1743174936575" class="icon" viewBox="0 0 1024 1024" version="1.1" xmlns="http://www.w3.org/2000/svg" p-id="2623" width="32" height="32" xmlns:xlink="http://www.w3.org/1999/xlink"><path d="M1023.959043 589.694904l0-157.478602-150.37261-24.553556c-7.822734-27.133829-18.635309-53.223262-32.25342-77.858731L928.939445 204.926966l-111.361331-111.320374-123.300216 88.63035c-24.840253-13.822894-51.134469-24.758339-78.432125-32.62203l-26.212303-149.614911-157.478602 0L407.847052 149.12343c-27.522918 7.802256-53.837613 18.614831-78.575474 32.273898l-122.972562-87.852172L94.978642 204.824574l86.480122 123.648348c-13.925286 25.024558-24.942645 51.523558-32.867771 79.066955L0.040957 432.277738l0 157.396688 148.304296 26.273738c7.884169 27.522918 18.901528 54.021918 32.867771 79.046476l-87.647388 122.583473L204.824574 928.980402l123.832653-86.725862c24.942645 13.802416 51.318774 24.696904 78.739301 32.519638l24.840253 149.225822 157.37621 0 26.560435-149.635389c27.400048-7.986561 53.653308-18.983441 78.37069-32.826814l124.610831 87.442605 111.361331-111.422766-89.019438-123.586913c13.638589-24.676426 24.410207-50.786337 32.171506-77.920166L1023.959043 589.694904zM512 655.348532c-79.046476 0-143.348532-64.322534-143.348532-143.348532 0-79.046476 64.302056-143.348532 143.348532-143.348532 79.025998 0 143.348532 64.302056 143.348532 143.348532C655.348532 591.025998 591.025998 655.348532 512 655.348532z" p-id="2624" fill="#2c2c2c"></path></svg>